<svg id="Layer_1" data-name="Layer 1" xmlns="http://www.w3.org/2000/svg" viewBox="0 0 467.33 189.28"><defs><style>.cls-1{fill:#fff;}.cls-2{fill:#002028;}</style></defs><rect class="cls-1" width="467.33" height="189.28"/><path class="cls-2" d="M176.58,45.15v.08c.51,0,5.95.69,5.95,7.57V89.23L151.69,45.15H140.06v.08c.42,0,4,.69,4,7.9v50.29c0,4.14-1.74,6.13-3.31,7.07l-1.34.92h12.46v-.09c-.51,0-5.77-.69-5.77-7.9V57.3l38.47,54.61V52.8c0-6.88,5.45-7.57,6-7.57v-.08Zm-117.37.08c.43,0,4,.69,4,7.9V76.5H41V53.13c0-7.21,3.58-7.9,4-7.9v-.08H25.41v.08c.34,0,3.9.69,3.9,7.9v50.29c0,7.21-3.56,7.9-3.9,7.9v.09H45v-.09c-.43,0-4-.69-4-7.9V78.36H63.21v25.06c0,7.21-3.57,7.9-4,7.9v.09H78.38l-1.08-.81c-1.1-.9-2.38-2.86-2.38-7.18V53.13c0-7.21,3.58-7.9,3.92-7.9v-.08H59.21Z"/><path class="cls-2" d="M217.28,112.51c3.82,0,14.18-1.62,17.58-1.62V85.41c0-7.22,3.57-7.9,3.91-7.9v-.17H219.15v.17c.34,0,3.91.68,3.91,7.9v24.21a9.16,9.16,0,0,1-4.42,1c-13.25,0-15.72-21.15-15.72-33,0-9.26,2.55-31.77,18.43-31.77A12.86,12.86,0,0,1,230.79,50c2,2.29,3.14,5.95,3.73,8.92h.09V46.59c-2.72-.42-7.9-2.54-13.34-2.54-26.33,0-30.07,24.63-30.07,35.93C191.2,94,195,112.34,217.28,112.51Z"/><path class="cls-2" d="M261.54,45.23v-.08H241.92v.08c.34,0,3.91.68,3.91,7.9v50.29c0,7.22-3.57,7.9-3.91,7.9v.08h19.62v-.08c-.42,0-4-.68-4-7.9V53.13C257.55,45.91,261.12,45.23,261.54,45.23Z"/><path class="cls-2" d="M293.59,111.41H283.46c-6.54,0-8.32-3.58-10.27-8.33l-8.42-20.81c-1.27-3.15-1.52-3.91-4.07-3.91h-3.15l15.38-25.23c3.91-6.28-.17-7.9-.34-7.9v-.08h18.35v.08c-1.11,0-8.5,1.87-13,8L260.78,76.5h8.75c4.84,0,6.2,1.69,8.24,6.62l7.38,18.09c3.1,7.5,6.37,9.53,7.64,9.93Z"/><path class="cls-2" d="M387.8,45.15h-14v.08c.51,0,6,.68,6,7.57V89.23L348.89,45.15H337.25v.08c.43,0,4,.68,4,7.9v50.29c0,7.22-5.27,7.9-5.78,7.9v.08h13.59v-.08c-.51,0-5.77-.68-5.77-7.9V57.3l38.48,54.62V52.8c0-6.89,5.43-7.57,6-7.57Z"/><path class="cls-2" d="M441.92,45.23v-.08H422.3v.08c.42,0,4,.68,4,7.9V76.49H404.12V53.13c0-7.22,3.56-7.9,4-7.9v-.08H388.49v.08c.34,0,3.91.68,3.91,7.9v50.29c0,7.22-3.57,7.9-3.91,7.9v.08h19.62v-.08c-.43,0-4-.68-4-7.9V78.36h22.17v25.06c0,7.22-3.57,7.9-4,7.9v.08h19.62v-.08c-.34,0-3.91-.68-3.91-7.9V53.13C438,45.91,441.58,45.23,441.92,45.23Z"/><path class="cls-2" d="M37.57,141.71c0-.81,0-1.46.07-2h-.53a11.41,11.41,0,0,1-.4,2.06,3.88,3.88,0,0,1-.71,1.44,2.91,2.91,0,0,1-1.15.84,4.43,4.43,0,0,1-1.69.28H31.65a3.54,3.54,0,0,1-1.1-.13.78.78,0,0,1-.51-.52,4.29,4.29,0,0,1-.13-1.19v-11.6a4.39,4.39,0,0,1,.14-1.27.88.88,0,0,1,.55-.55,4.08,4.08,0,0,1,1.19-.18v-.46l-1.42.05-1.76,0-1.82,0-1.38-.05v.46a4,4,0,0,1,1.17.18.85.85,0,0,1,.54.55,4.87,4.87,0,0,1,.13,1.27v11.51a4.83,4.83,0,0,1-.13,1.26.81.81,0,0,1-.53.55,4.56,4.56,0,0,1-1.18.19v.46l1.89,0,1.95,0h5.82q1.49,0,2.67.06c-.07-.63-.11-1.25-.13-1.84S37.57,142,37.57,141.71Z"/><path class="cls-2" d="M51.5,128.55l-1.28,0-1.14-.05v.46a3.33,3.33,0,0,1,1.33.29,1.36,1.36,0,0,1,.65.78,5,5,0,0,1,.19,1.53v6.87a11.23,11.23,0,0,1-.39,3.1,4.15,4.15,0,0,1-1.32,2.14,4.07,4.07,0,0,1-2.66.77A3.73,3.73,0,0,1,45,144,2.6,2.6,0,0,1,44,142.88a5.59,5.59,0,0,1-.49-1.73,16.28,16.28,0,0,1-.13-2.18v-8a4.39,4.39,0,0,1,.14-1.27.86.86,0,0,1,.55-.55,4.08,4.08,0,0,1,1.19-.18v-.46l-1.42.05-1.76,0-1.82,0-1.38-.05v.46a3.89,3.89,0,0,1,1.18.18.83.83,0,0,1,.53.55,5,5,0,0,1,.12,1.27v7.29a21.13,21.13,0,0,0,.14,2.61,5.37,5.37,0,0,0,.54,1.8A5,5,0,0,0,42.45,144a4.06,4.06,0,0,0,1.83,1,9.12,9.12,0,0,0,2.16.26,5.73,5.73,0,0,0,2.68-.59,4.28,4.28,0,0,0,1.71-1.57,6.11,6.11,0,0,0,.74-2.11,16.86,16.86,0,0,0,.21-2.81v-6.71a5.63,5.63,0,0,1,.14-1.47,1.2,1.2,0,0,1,.53-.76,2.69,2.69,0,0,1,1.16-.28v-.46l-.94.05Z"/><path class="cls-2" d="M67.77,143.26l-5-7.54,3.15-4.55a8.08,8.08,0,0,1,1.33-1.51,3.1,3.1,0,0,1,1.39-.72v-.46l-.87.05-1.15,0h-.87l-1,0c-.32,0-.63,0-.92,0v.46a2.65,2.65,0,0,1,1.42.35.94.94,0,0,1,.31,1.05,6,6,0,0,1-1,1.92l-2.11,3-3.55-5.35c-.22-.35-.24-.61-.06-.75a2.58,2.58,0,0,1,1.38-.22v-.49l-1.5.06c-.58,0-1.2,0-1.87,0q-.69,0-1.38,0l-1-.06V129a1.35,1.35,0,0,1,.81.25,4.64,4.64,0,0,1,.72.91l4.7,7.09-3.36,4.86a8.65,8.65,0,0,1-1.41,1.61,3.32,3.32,0,0,1-1.46.76v.46c.24,0,.55,0,.9-.06h2.76l.91,0,.76,0v-.46a3.29,3.29,0,0,1-1.52-.38,1.07,1.07,0,0,1-.48-1.07,4.65,4.65,0,0,1,.91-2l2.3-3.32,3.95,5.95c.21.34.21.55,0,.65a4.78,4.78,0,0,1-1.44.13v.49l1.47-.06,1.94,0q.72,0,1.38,0l1,.06v-.49a1.51,1.51,0,0,1-.78-.26A4.42,4.42,0,0,1,67.77,143.26Z"/><path class="cls-2" d="M82.53,128.55l-1.28,0-1.13-.05v.46a3.31,3.31,0,0,1,1.32.29,1.36,1.36,0,0,1,.65.78,5,5,0,0,1,.19,1.53v6.87a11.23,11.23,0,0,1-.39,3.1,3.67,3.67,0,0,1-4,2.91,3.66,3.66,0,0,1-1.84-.4A2.56,2.56,0,0,1,75,142.88a5.59,5.59,0,0,1-.49-1.73,18.13,18.13,0,0,1-.13-2.18v-8a4.39,4.39,0,0,1,.14-1.27.88.88,0,0,1,.55-.55,4.08,4.08,0,0,1,1.19-.18v-.46l-1.42.05-1.76,0-1.82,0-1.38-.05v.46a4,4,0,0,1,1.19.18.84.84,0,0,1,.52.55,5,5,0,0,1,.12,1.27v7.29a21.13,21.13,0,0,0,.14,2.61,5.61,5.61,0,0,0,.54,1.8A5,5,0,0,0,73.48,144a4.16,4.16,0,0,0,1.83,1,9.12,9.12,0,0,0,2.16.26,5.73,5.73,0,0,0,2.68-.59,4.28,4.28,0,0,0,1.71-1.57A6.11,6.11,0,0,0,82.6,141a16.86,16.86,0,0,0,.21-2.81v-6.71A6.1,6.1,0,0,1,83,130a1.2,1.2,0,0,1,.53-.76,2.73,2.73,0,0,1,1.16-.28v-.46l-.94.05Z"/><path class="cls-2" d="M100.07,144.09a1.13,1.13,0,0,1-.62.22.79.79,0,0,1-.73-.42,5.28,5.28,0,0,1-.45-1.41l-.58-2.37A3.75,3.75,0,0,0,96.58,138,4.9,4.9,0,0,0,94,137l-.24,0a7.16,7.16,0,0,0,1.54-.34,5.5,5.5,0,0,0,2-1.12,3.84,3.84,0,0,0,1-1.49,4.29,4.29,0,0,0,.29-1.52,3.55,3.55,0,0,0-.64-2.1A4.06,4.06,0,0,0,96,129a9.11,9.11,0,0,0-3.28-.51l-1.43,0-2.12,0-1.68,0-1.38-.05v.46a4,4,0,0,1,1.17.18.81.81,0,0,1,.53.55,4.46,4.46,0,0,1,.13,1.27v11.51a4.43,4.43,0,0,1-.13,1.26.8.8,0,0,1-.52.55,4.72,4.72,0,0,1-1.18.19v.46q.52,0,1.38-.06H91c.56,0,1,0,1.4.06v-.46a4.54,4.54,0,0,1-1.16-.19.83.83,0,0,1-.53-.55,4,4,0,0,1-.14-1.26v-5.34h2a1.86,1.86,0,0,1,1.31.42,2.79,2.79,0,0,1,.71,1.15,12.54,12.54,0,0,1,.46,1.73l.47,2.32a3.19,3.19,0,0,0,1,2,2.84,2.84,0,0,0,1.7.52,3,3,0,0,0,1.56-.36,4,4,0,0,0,1.11-1.08l-.32-.26A3.53,3.53,0,0,1,100.07,144.09Zm-9.15-14.75a1.66,1.66,0,0,1,1.31-.4A3.3,3.3,0,0,1,95,130a4.52,4.52,0,0,1,.79,2.85,6.16,6.16,0,0,1-.29,1.93,2.63,2.63,0,0,1-1.11,1.4,4.47,4.47,0,0,1-2.38.52H90.61v-5.71A2.78,2.78,0,0,1,90.92,129.34Z"/><path class="cls-2" d="M111.71,128.55l-1.33,0-1.41-.05v.46a3.14,3.14,0,0,1,1.5.34,1.17,1.17,0,0,1,.51,1.09,5.61,5.61,0,0,1-.74,2.19l-2.57,5.13-3.74-7.19a1.18,1.18,0,0,1-.17-1,.83.83,0,0,1,.6-.46,4.58,4.58,0,0,1,1-.11v-.49c-.55,0-1.16.05-1.81.06h-1.81l-1.2,0-1.07-.05V129a1,1,0,0,1,.57.23,3.49,3.49,0,0,1,.78,1.07l4.61,8.52v3.66a4.92,4.92,0,0,1-.12,1.26.81.81,0,0,1-.53.55,4.56,4.56,0,0,1-1.18.19v.46c.34,0,.8,0,1.37-.06h3.55c.57,0,1,0,1.42.06v-.46a4.71,4.71,0,0,1-1.17-.19.83.83,0,0,1-.53-.55,4.36,4.36,0,0,1-.14-1.26v-4.6l3.34-6.63a8.18,8.18,0,0,1,1.06-1.64,2,2,0,0,1,.94-.64v-.46l-.76.05Z"/><path class="cls-2" d="M124,130.92a4.82,4.82,0,0,1,1.52-1.69,3.78,3.78,0,0,1,2.09-.59,5.93,5.93,0,0,1,2.07.37,3.77,3.77,0,0,1,1.64,1.21,3.94,3.94,0,0,1,.67.91,4.79,4.79,0,0,1,.39,1.11c.1.43.21,1,.31,1.67h.54c0-1.38,0-2.48,0-3.31s0-1.53.07-2.12h-.53a2.41,2.41,0,0,1-.34,1.26c-.16.18-.4.15-.71-.08a8.55,8.55,0,0,0-1.75-1,5.94,5.94,0,0,0-2.52-.46,7.24,7.24,0,0,0-4,1.1,7.54,7.54,0,0,0-2.7,3,11.09,11.09,0,0,0,0,9.07,6.9,6.9,0,0,0,2.67,2.88,7.94,7.94,0,0,0,4,1,5.7,5.7,0,0,0,2.47-.46,12.12,12.12,0,0,0,1.82-1.05c.34-.22.59-.24.74-.07a2.67,2.67,0,0,1,.31,1.25h.53c0-.6,0-1.34-.07-2.21s0-2,0-3.45h-.54a14.86,14.86,0,0,1-.4,2.38,3.71,3.71,0,0,1-.89,1.56,3.65,3.65,0,0,1-1.63,1.18,5.72,5.72,0,0,1-2,.38,3.94,3.94,0,0,1-2.1-.57,4.86,4.86,0,0,1-1.6-1.62,8.17,8.17,0,0,1-1-2.53,14,14,0,0,1-.35-3.29,15.71,15.71,0,0,1,.32-3.25A9.23,9.23,0,0,1,124,130.92Z"/><path class="cls-2" d="M148.24,143l-5.66-14.57h-.79l-5.39,13.9a4.39,4.39,0,0,1-.93,1.58,2.18,2.18,0,0,1-1,.58v.46q.34,0,.78-.06h2.32c.47,0,.94,0,1.4.06v-.46a4.45,4.45,0,0,1-1.21-.19,1.12,1.12,0,0,1-.68-.55,2,2,0,0,1-.12-1.1,7.44,7.44,0,0,1,.5-1.74l.84-2.18h5.41l1.41,3.81c.31.79.36,1.3.15,1.54a2.21,2.21,0,0,1-1.5.41v.46c.35,0,.79,0,1.35-.06h3.33c.5,0,.94,0,1.31.06v-.46a1.71,1.71,0,0,1-.8-.33A2.47,2.47,0,0,1,148.24,143Zm-9.74-4.73,2.58-6.73,2.49,6.73Z"/><path class="cls-2" d="M164,144.09a1.07,1.07,0,0,1-.61.22.78.78,0,0,1-.73-.42,4.63,4.63,0,0,1-.45-1.41l-.59-2.37a3.74,3.74,0,0,0-1.1-2.14A4.9,4.9,0,0,0,158,137l-.25,0a7.12,7.12,0,0,0,1.55-.34,5.5,5.5,0,0,0,1.95-1.12,3.84,3.84,0,0,0,1-1.49,4.53,4.53,0,0,0,.29-1.52,3.55,3.55,0,0,0-.64-2.1A4.06,4.06,0,0,0,160,129a9.11,9.11,0,0,0-3.28-.51l-1.43,0-2.12,0-1.69,0-1.38-.05v.46a4.12,4.12,0,0,1,1.18.18.83.83,0,0,1,.53.55,4.87,4.87,0,0,1,.13,1.27v11.51a4.83,4.83,0,0,1-.13,1.26.82.82,0,0,1-.52.55,4.73,4.73,0,0,1-1.19.19v.46q.54,0,1.38-.06H155c.56,0,1,0,1.4.06v-.46a4.54,4.54,0,0,1-1.16-.19.87.87,0,0,1-.54-.55,4.43,4.43,0,0,1-.13-1.26v-5.34h2a1.86,1.86,0,0,1,1.31.42,2.79,2.79,0,0,1,.71,1.15,14.14,14.14,0,0,1,.46,1.73l.47,2.32a3.14,3.14,0,0,0,1,2,2.84,2.84,0,0,0,1.7.52,3,3,0,0,0,1.56-.36,4.31,4.31,0,0,0,1.11-1.08l-.32-.26A3.13,3.13,0,0,1,164,144.09Zm-9.14-14.75a1.65,1.65,0,0,1,1.31-.4,3.3,3.3,0,0,1,2.74,1,4.58,4.58,0,0,1,.79,2.85,6.16,6.16,0,0,1-.29,1.93,2.6,2.6,0,0,1-1.12,1.4,4.43,4.43,0,0,1-2.37.52h-1.37v-5.71A2.78,2.78,0,0,1,154.89,129.34Z"/><path class="cls-2" d="M172.08,128.5l-1.43,0-2.13,0-1.68,0-1.38-.05v.46a4,4,0,0,1,1.17.18.85.85,0,0,1,.54.55,4.87,4.87,0,0,1,.13,1.27v11.51a4.83,4.83,0,0,1-.13,1.26.81.81,0,0,1-.53.55,4.56,4.56,0,0,1-1.18.19v.46c.39,0,.86,0,1.43-.06h3.84c.66,0,1.21,0,1.63.06v-.49a6.58,6.58,0,0,1-1.51-.16,1,1,0,0,1-.7-.57,3.22,3.22,0,0,1-.19-1.28v-4.14h1.61a8.73,8.73,0,0,0,3.13-.48,5.28,5.28,0,0,0,2-1.27,4.56,4.56,0,0,0,1-1.69,5.94,5.94,0,0,0,.29-1.76,4.18,4.18,0,0,0-1.46-3.29A6.58,6.58,0,0,0,172.08,128.5Zm2.75,7a3.06,3.06,0,0,1-1.12,1.64,3.86,3.86,0,0,1-2.38.63H170v-6.87a2.77,2.77,0,0,1,.32-1.6,1.65,1.65,0,0,1,1.31-.4,3.18,3.18,0,0,1,2.74,1.09,5.69,5.69,0,0,1,.79,3.3A8.26,8.26,0,0,1,174.83,135.54Z"/><path class="cls-2" d="M191.6,141.76a16.91,16.91,0,0,1,.07-1.77h-.54a10.06,10.06,0,0,1-.61,2.6,2.66,2.66,0,0,1-1.19,1.37,4.45,4.45,0,0,1-2.1.42h-1.51a3.56,3.56,0,0,1-1.12-.13.81.81,0,0,1-.53-.52,3.94,3.94,0,0,1-.13-1.19v-5.66h1.27a2.15,2.15,0,0,1,1.48.44,2.48,2.48,0,0,1,.66,1.15c.12.47.22,1,.3,1.48h.53c-.06-.89-.1-1.56-.11-2s0-.89,0-1.28,0-.81,0-1.28,0-1.14.08-2h-.53c-.06.3-.13.62-.2,1a4.77,4.77,0,0,1-.33,1,2.13,2.13,0,0,1-.67.79,2,2,0,0,1-1.17.3h-1.27v-5.57a4,4,0,0,1,.13-1.2.84.84,0,0,1,.53-.51,3.88,3.88,0,0,1,1.12-.13h1.6a3.92,3.92,0,0,1,1.85.36,2.29,2.29,0,0,1,1,1.22,9.76,9.76,0,0,1,.5,2.35h.53c0-.18,0-.39,0-.65s0-.55,0-.84,0-.72,0-1.26.06-1.12.12-1.71c-.71,0-1.52.05-2.42.06h-5.6l-2,0c-.65,0-1.28,0-1.89,0v.46a4.12,4.12,0,0,1,1.18.18.83.83,0,0,1,.53.55,4.87,4.87,0,0,1,.13,1.27v11.51a4.83,4.83,0,0,1-.13,1.26.82.82,0,0,1-.52.55,4.73,4.73,0,0,1-1.19.19v.46l1.89,0,2,0h5.82q1.49,0,2.67.06c-.06-.62-.11-1.22-.13-1.81S191.6,142.06,191.6,141.76Z"/><path class="cls-2" d="M207,128.48l-2.18.05-2.39,0h-4.34l-2.39,0-2.18-.05c.06.65.1,1.28.13,1.89s0,1.08,0,1.41,0,.69,0,1,0,.6-.06.83h.54a12.8,12.8,0,0,1,.6-2.74,2.71,2.71,0,0,1,1.11-1.44,4.06,4.06,0,0,1,2-.44h1v13.23a4.08,4.08,0,0,1-.19,1.4,1,1,0,0,1-.7.61,6.71,6.71,0,0,1-1.51.2v.46c.41,0,.94,0,1.6-.06h4.19c.68,0,1.23,0,1.67.06v-.46a6.82,6.82,0,0,1-1.52-.2,1,1,0,0,1-.7-.61,4.12,4.12,0,0,1-.18-1.4V129h1a4,4,0,0,1,2.07.44,2.79,2.79,0,0,1,1.1,1.44,12.64,12.64,0,0,1,.62,2.74h.53c0-.23,0-.51,0-.83s0-.67,0-1,0-.8,0-1.41S206.92,129.13,207,128.48Z"/><path class="cls-2" d="M217.43,137a25.2,25.2,0,0,0-2.09-1.47c-.76-.48-1.44-.92-2-1.31a5.32,5.32,0,0,1-1.4-1.28,2.72,2.72,0,0,1-.52-1.71,2.39,2.39,0,0,1,.78-1.86,2.77,2.77,0,0,1,2-.71,3.21,3.21,0,0,1,2.1.67,4.3,4.3,0,0,1,1.26,1.74,7.32,7.32,0,0,1,.5,2.21h.53c0-1,0-1.82,0-2.44s0-1.12.05-1.5,0-.71,0-1h-.53a3.49,3.49,0,0,1-.17.76.37.37,0,0,1-.34.26.88.88,0,0,1-.34-.08l-.45-.25a6.71,6.71,0,0,0-1.14-.6,4.84,4.84,0,0,0-1.87-.28,5.92,5.92,0,0,0-2.27.44A4,4,0,0,0,209.8,130a3.84,3.84,0,0,0-.66,2.32,4.09,4.09,0,0,0,.57,2.2,5.86,5.86,0,0,0,1.52,1.63c.64.46,1.32.93,2,1.39a20.74,20.74,0,0,1,1.87,1.27,5.23,5.23,0,0,1,1.26,1.33,3.09,3.09,0,0,1,.45,1.67,3,3,0,0,1-.42,1.67,2.44,2.44,0,0,1-1.09.95,3.42,3.42,0,0,1-1.46.31,3.52,3.52,0,0,1-2.38-.76,4.34,4.34,0,0,1-1.32-2,10.19,10.19,0,0,1-.53-2.7h-.53c0,1.13,0,2.07,0,2.81s0,1.34,0,1.8,0,.85-.05,1.19h.53a4.22,4.22,0,0,1,.17-.76.37.37,0,0,1,.34-.26,1.65,1.65,0,0,1,.79.33,9.58,9.58,0,0,0,1.3.58,6.37,6.37,0,0,0,2.07.28,6.79,6.79,0,0,0,2.59-.49,4.43,4.43,0,0,0,1.9-1.47,4.2,4.2,0,0,0,.7-2.5,4,4,0,0,0-.53-2.13A6,6,0,0,0,217.43,137Z"/><path class="cls-2" d="M245.21,128.55l-1.35,0-1.39-.05v.46a2.78,2.78,0,0,1,1.45.36,1.39,1.39,0,0,1,.54,1.14,7,7,0,0,1-.43,2.24L241.38,141l-3.3-10.13a3.3,3.3,0,0,1-.22-1.27.63.63,0,0,1,.47-.53,4.77,4.77,0,0,1,1.1-.15v-.46l-1.31.05-1.78,0-1.39,0-1.21-.05v.46a1.45,1.45,0,0,1,.69.29,2.35,2.35,0,0,1,.64,1.13l.81,2.42-2.66,8.27-3.4-10.16a4,4,0,0,1-.22-1,.81.81,0,0,1,.22-.63,1.29,1.29,0,0,1,.79-.27v-.46l-1.1.05-1.52,0-1.49,0-1.32-.05v.46a1.67,1.67,0,0,1,.81.32,2.21,2.21,0,0,1,.75,1.17l5,14.57h.79l3.61-11.41L240,145h.79l4.27-13.78a3.81,3.81,0,0,1,.9-1.66,2.48,2.48,0,0,1,1-.62v-.46l-.75.05Z"/><path class="cls-2" d="M251,128.55l-1.82,0-1.38-.05v.46a4,4,0,0,1,1.17.18.81.81,0,0,1,.53.55,4.46,4.46,0,0,1,.13,1.27v11.51a4.43,4.43,0,0,1-.13,1.26.8.8,0,0,1-.52.55,4.64,4.64,0,0,1-1.18.19v.46q.53,0,1.38-.06h3.55c.56,0,1,0,1.4.06v-.46a4.62,4.62,0,0,1-1.16-.19.83.83,0,0,1-.53-.55,4.36,4.36,0,0,1-.14-1.26V130.94a4.39,4.39,0,0,1,.14-1.27.85.85,0,0,1,.53-.55,3.91,3.91,0,0,1,1.16-.18v-.46l-1.4.05Z"/><path class="cls-2" d="M269.16,128.48l-2.18.05-2.39,0h-4.34l-2.39,0-2.18-.05q.09,1,.12,1.89c0,.61,0,1.08,0,1.41s0,.69,0,1,0,.6-.06.83h.53a13.35,13.35,0,0,1,.61-2.74,2.71,2.71,0,0,1,1.11-1.44,4.06,4.06,0,0,1,2-.44h1v13.23a4.08,4.08,0,0,1-.19,1.4,1,1,0,0,1-.7.61,6.71,6.71,0,0,1-1.51.2v.46c.41,0,.94,0,1.6-.06h4.18c.69,0,1.24,0,1.68.06v-.46a7,7,0,0,1-1.53-.2,1,1,0,0,1-.69-.61,4.12,4.12,0,0,1-.18-1.4V129h1a4,4,0,0,1,2.07.44,2.79,2.79,0,0,1,1.1,1.44,12.64,12.64,0,0,1,.62,2.74h.53c0-.23,0-.51-.05-.83s0-.67,0-1,0-.8,0-1.41S269.1,129.13,269.16,128.48Z"/><path class="cls-2" d="M283.65,128.55l-1.73,0-1.45-.05v.46a4,4,0,0,1,1.17.18.81.81,0,0,1,.53.55,4.46,4.46,0,0,1,.13,1.27v5.48h-7.08v-5.48a4.39,4.39,0,0,1,.14-1.27.85.85,0,0,1,.53-.55,3.91,3.91,0,0,1,1.16-.18v-.46l-1.4.05-1.73,0-1.82,0-1.38-.05v.46a4,4,0,0,1,1.17.18.81.81,0,0,1,.53.55,4.46,4.46,0,0,1,.13,1.27v11.51a4.43,4.43,0,0,1-.13,1.26.8.8,0,0,1-.52.55,4.64,4.64,0,0,1-1.18.19v.46q.52,0,1.38-.06h3.55c.56,0,1,0,1.4.06v-.46a4.62,4.62,0,0,1-1.16-.19.83.83,0,0,1-.53-.55,4.36,4.36,0,0,1-.14-1.26v-5.57h7.08v5.57a4.43,4.43,0,0,1-.13,1.26.8.8,0,0,1-.52.55,4.64,4.64,0,0,1-1.18.19v.46c.38,0,.87,0,1.45-.06h3.54c.55,0,1,0,1.34.06v-.46a4.54,4.54,0,0,1-1.16-.19.83.83,0,0,1-.53-.55,4.36,4.36,0,0,1-.14-1.26V130.94a4.39,4.39,0,0,1,.14-1.27.85.85,0,0,1,.53-.55,3.85,3.85,0,0,1,1.16-.18v-.46l-1.34.05Z"/><path class="cls-2" d="M298.72,130.92a4.82,4.82,0,0,1,1.52-1.69,3.76,3.76,0,0,1,2.09-.59,5.93,5.93,0,0,1,2.07.37,3.83,3.83,0,0,1,1.64,1.21,3.88,3.88,0,0,1,.66.91,4.36,4.36,0,0,1,.4,1.11c.1.43.21,1,.31,1.67H308c0-1.38,0-2.48,0-3.31s0-1.53.07-2.12h-.53a2.52,2.52,0,0,1-.34,1.26c-.16.18-.4.15-.71-.08a8.55,8.55,0,0,0-1.75-1,5.94,5.94,0,0,0-2.52-.46,7.24,7.24,0,0,0-4,1.1,7.54,7.54,0,0,0-2.7,3,11.09,11.09,0,0,0,0,9.07,6.9,6.9,0,0,0,2.67,2.88,7.94,7.94,0,0,0,4,1,5.7,5.7,0,0,0,2.47-.46,12.12,12.12,0,0,0,1.82-1.05c.34-.22.59-.24.73-.07a2.64,2.64,0,0,1,.32,1.25H308c0-.6-.05-1.34-.07-2.21s0-2,0-3.45h-.54a14.86,14.86,0,0,1-.4,2.38,3.73,3.73,0,0,1-.9,1.56,3.56,3.56,0,0,1-1.62,1.18,5.72,5.72,0,0,1-2,.38,3.94,3.94,0,0,1-2.1-.57,5,5,0,0,1-1.61-1.62,8.41,8.41,0,0,1-1-2.53,14,14,0,0,1-.35-3.29,15.71,15.71,0,0,1,.32-3.25A9.23,9.23,0,0,1,298.72,130.92Z"/><path class="cls-2" d="M322.3,129.15a7.89,7.89,0,0,0-4-1,7.22,7.22,0,0,0-4,1.1,7.4,7.4,0,0,0-2.7,3,11.09,11.09,0,0,0,0,9.07,6.77,6.77,0,0,0,2.67,2.88,7.87,7.87,0,0,0,4,1,7.25,7.25,0,0,0,6.69-4.13,10.06,10.06,0,0,0,1-4.55,9.83,9.83,0,0,0-1-4.54A6.77,6.77,0,0,0,322.3,129.15Zm.21,11.74a6.9,6.9,0,0,1-1.65,2.89,3.43,3.43,0,0,1-2.49,1,3.66,3.66,0,0,1-2.49-1,6.56,6.56,0,0,1-1.76-2.81,12.8,12.8,0,0,1-.65-4.28,14,14,0,0,1,.58-4.25,6.82,6.82,0,0,1,1.65-2.87,3.46,3.46,0,0,1,2.51-1.05,3.62,3.62,0,0,1,2.47,1,6.87,6.87,0,0,1,1.76,2.79,12.58,12.58,0,0,1,.66,4.3A14.06,14.06,0,0,1,322.51,140.89Z"/><path class="cls-2" d="M340.51,128.55l-1.3,0-1.11-.05v.46a3.53,3.53,0,0,1,1.39.29,1.23,1.23,0,0,1,.61.78,6,6,0,0,1,.15,1.53v9.06l-8.47-12.12-.86.05-1,0-1.16,0-1-.05v.46a3.85,3.85,0,0,1,1.16.18.87.87,0,0,1,.54.55,4.39,4.39,0,0,1,.14,1.27v11a6.13,6.13,0,0,1-.14,1.46,1.16,1.16,0,0,1-.54.76,3,3,0,0,1-1.16.29v.46q.38,0,1-.06h2.44c.46,0,.84,0,1.13.06v-.46a4.16,4.16,0,0,1-1.42-.3,1.14,1.14,0,0,1-.6-.78,6.64,6.64,0,0,1-.14-1.52V130.71L340,145h.77V131.45a6.2,6.2,0,0,1,.13-1.47,1.15,1.15,0,0,1,.52-.76,2.75,2.75,0,0,1,1.18-.28v-.46l-.95.05Z"/><path class="cls-2" d="M356.16,128.48q-1.08,0-2.43.06h-5.6l-1.94,0c-.66,0-1.29,0-1.9,0v.46a4.12,4.12,0,0,1,1.18.18.81.81,0,0,1,.53.55,4.87,4.87,0,0,1,.13,1.27v11.51a4.83,4.83,0,0,1-.13,1.26.8.8,0,0,1-.52.55,4.73,4.73,0,0,1-1.19.19v.46c.39,0,.87,0,1.43-.06h3.84c.67,0,1.21,0,1.63.06v-.49a6.58,6.58,0,0,1-1.51-.16,1,1,0,0,1-.7-.57,3.44,3.44,0,0,1-.18-1.28v-5.34h1.41a2.07,2.07,0,0,1,1.46.44,2.3,2.3,0,0,1,.68,1.15,13.2,13.2,0,0,1,.28,1.47h.53c-.06-.88-.1-1.55-.12-2s0-.89,0-1.28,0-.81,0-1.27,0-1.14.08-2h-.53q-.07.44-.18,1a4.42,4.42,0,0,1-.33,1,1.85,1.85,0,0,1-1.84,1.09H348.8v-5.75a3.62,3.62,0,0,1,.14-1.2.8.8,0,0,1,.52-.51,3.88,3.88,0,0,1,1.12-.13h1.23a4.15,4.15,0,0,1,2.07.43,2.62,2.62,0,0,1,1.08,1.39,12.28,12.28,0,0,1,.57,2.66h.53c0-.23,0-.51-.05-.83s0-.67,0-1,0-.76,0-1.35S356.09,129.1,356.16,128.48Z"/><path class="cls-2" d="M360.89,128.55l-1.82,0-1.38-.05v.46a4,4,0,0,1,1.17.18.81.81,0,0,1,.53.55,4.46,4.46,0,0,1,.13,1.27v11.51a4.43,4.43,0,0,1-.13,1.26.8.8,0,0,1-.52.55,4.64,4.64,0,0,1-1.18.19v.46q.53,0,1.38-.06h3.55c.56,0,1,0,1.4.06v-.46a4.54,4.54,0,0,1-1.16-.19.83.83,0,0,1-.53-.55,4.36,4.36,0,0,1-.14-1.26V130.94a4.39,4.39,0,0,1,.14-1.27.85.85,0,0,1,.53-.55,3.85,3.85,0,0,1,1.16-.18v-.46l-1.4.05Z"/><path class="cls-2" d="M372.45,128.48l-1.68,0-1.87.05c-.56,0-1.12,0-1.69,0l-1.38-.06v.46a4.12,4.12,0,0,1,1.18.18.81.81,0,0,1,.53.55,4.87,4.87,0,0,1,.13,1.27v11.51a4.83,4.83,0,0,1-.13,1.26.8.8,0,0,1-.52.55,4.73,4.73,0,0,1-1.19.19v.46q.54,0,1.38-.06h2.87l1.22,0,.94,0a9.86,9.86,0,0,0,4.7-1,7.17,7.17,0,0,0,3-2.94,9.16,9.16,0,0,0,1-4.42,8,8,0,0,0-2.09-5.95Q376.75,128.47,372.45,128.48Zm5.1,12.42a4.84,4.84,0,0,1-1.83,2.68,6.26,6.26,0,0,1-3.64.91,1.87,1.87,0,0,1-1.41-.39,2.67,2.67,0,0,1-.33-1.6V130.89a2.69,2.69,0,0,1,.32-1.6,1.81,1.81,0,0,1,1.39-.39,6.59,6.59,0,0,1,3.57.84,4.79,4.79,0,0,1,1.89,2.56,13.42,13.42,0,0,1,.58,4.3A14.86,14.86,0,0,1,377.55,140.9Z"/><path class="cls-2" d="M395,141.76a16.91,16.91,0,0,1,.07-1.77h-.54a10.06,10.06,0,0,1-.61,2.6,2.66,2.66,0,0,1-1.19,1.37,4.45,4.45,0,0,1-2.1.42h-1.51a3.56,3.56,0,0,1-1.12-.13.81.81,0,0,1-.53-.52,3.94,3.94,0,0,1-.13-1.19v-5.66h1.27a2.15,2.15,0,0,1,1.48.44,2.48,2.48,0,0,1,.66,1.15c.12.47.22,1,.3,1.48h.53c-.06-.89-.1-1.56-.11-2s0-.89,0-1.28,0-.81,0-1.28,0-1.14.08-2H391c-.06.3-.13.62-.2,1a4.77,4.77,0,0,1-.33,1,2.13,2.13,0,0,1-.67.79,2,2,0,0,1-1.17.3h-1.27v-5.57a4,4,0,0,1,.13-1.2.84.84,0,0,1,.53-.51,3.88,3.88,0,0,1,1.12-.13h1.6a3.92,3.92,0,0,1,1.85.36,2.29,2.29,0,0,1,1,1.22,9.76,9.76,0,0,1,.5,2.35h.53c0-.18,0-.39,0-.65s0-.55,0-.84,0-.72,0-1.26.06-1.12.12-1.71c-.71,0-1.52.05-2.42.06h-5.6l-2,0c-.65,0-1.28,0-1.89,0v.46a4.12,4.12,0,0,1,1.18.18.83.83,0,0,1,.53.55,4.87,4.87,0,0,1,.13,1.27v11.51a4.83,4.83,0,0,1-.13,1.26.82.82,0,0,1-.52.55,4.73,4.73,0,0,1-1.19.19v.46l1.89,0,2,0h5.82q1.49,0,2.67.06c-.06-.62-.11-1.22-.13-1.81S395,142.06,395,141.76Z"/><path class="cls-2" d="M409.86,128.55l-1.3,0-1.11-.05v.46a3.49,3.49,0,0,1,1.39.29,1.28,1.28,0,0,1,.62.78,6,6,0,0,1,.15,1.53v9.06l-8.47-12.12-.86.05-1,0-1.16,0-.95-.05v.46a3.91,3.91,0,0,1,1.16.18.85.85,0,0,1,.53.55,4.39,4.39,0,0,1,.14,1.27v11a6.13,6.13,0,0,1-.14,1.46,1.15,1.15,0,0,1-.53.76,3,3,0,0,1-1.16.29v.46c.24,0,.56,0,.95-.06h2.45c.45,0,.83,0,1.12.06v-.46a4.15,4.15,0,0,1-1.41-.3,1.19,1.19,0,0,1-.61-.78,6.64,6.64,0,0,1-.14-1.52V130.71L409.38,145h.76V131.45a6.2,6.2,0,0,1,.13-1.47,1.15,1.15,0,0,1,.52-.76,2.75,2.75,0,0,1,1.18-.28v-.46l-1,.05Z"/><path class="cls-2" d="M417.93,130.92a4.82,4.82,0,0,1,1.52-1.69,3.76,3.76,0,0,1,2.09-.59,5.92,5.92,0,0,1,2.06.37,5.13,5.13,0,0,1,2.31,2.12,4.78,4.78,0,0,1,.4,1.11c.1.43.2,1,.31,1.67h.54c0-1.38,0-2.48,0-3.31s0-1.53.07-2.12h-.54a2.44,2.44,0,0,1-.33,1.26c-.16.18-.4.15-.71-.08a8.82,8.82,0,0,0-1.75-1,5.94,5.94,0,0,0-2.52-.46,7.22,7.22,0,0,0-4,1.1,7.4,7.4,0,0,0-2.7,3,11.09,11.09,0,0,0,0,9.07,6.77,6.77,0,0,0,2.67,2.88,7.91,7.91,0,0,0,4,1,5.73,5.73,0,0,0,2.47-.46,12.12,12.12,0,0,0,1.82-1.05c.34-.22.58-.24.73-.07a2.55,2.55,0,0,1,.31,1.25h.54c0-.6-.06-1.34-.07-2.21s0-2,0-3.45h-.54a16.09,16.09,0,0,1-.4,2.38,3.84,3.84,0,0,1-.9,1.56,3.56,3.56,0,0,1-1.62,1.18,5.78,5.78,0,0,1-2,.38,4,4,0,0,1-2.1-.57,5,5,0,0,1-1.6-1.62,8.42,8.42,0,0,1-1-2.53,14.5,14.5,0,0,1-.35-3.29,15,15,0,0,1,.33-3.25A8.93,8.93,0,0,1,417.93,130.92Z"/><path class="cls-2" d="M441.75,141.76c0-.73,0-1.32.07-1.77h-.53a10,10,0,0,1-.62,2.6,2.64,2.64,0,0,1-1.18,1.37,4.45,4.45,0,0,1-2.1.42h-1.51a3.56,3.56,0,0,1-1.12-.13.81.81,0,0,1-.53-.52,3.88,3.88,0,0,1-.14-1.19v-5.66h1.28a2.1,2.1,0,0,1,1.47.44,2.41,2.41,0,0,1,.67,1.15c.12.47.22,1,.3,1.48h.53c-.06-.89-.1-1.56-.11-2s0-.89,0-1.28,0-.81,0-1.28,0-1.14.08-2h-.53c-.06.3-.13.62-.2,1a4.29,4.29,0,0,1-.34,1,2,2,0,0,1-.66.79,2,2,0,0,1-1.17.3h-1.28v-5.57a3.91,3.91,0,0,1,.14-1.2.84.84,0,0,1,.53-.51,3.88,3.88,0,0,1,1.12-.13h1.6a3.92,3.92,0,0,1,1.85.36,2.29,2.29,0,0,1,1,1.22,9.35,9.35,0,0,1,.49,2.35h.54c0-.18,0-.39-.05-.65s0-.55,0-.84,0-.72,0-1.26.07-1.12.13-1.71c-.71,0-1.52.05-2.42.06h-5.6l-1.95,0c-.66,0-1.29,0-1.89,0v.46a4,4,0,0,1,1.17.18.85.85,0,0,1,.54.55,4.87,4.87,0,0,1,.13,1.27v11.51a4.83,4.83,0,0,1-.13,1.26.81.81,0,0,1-.53.55,4.56,4.56,0,0,1-1.18.19v.46l1.89,0,1.95,0h5.82q1.49,0,2.67.06c-.07-.62-.11-1.22-.13-1.81S441.75,142.06,441.75,141.76Z"/><line class="cls-2" x1="140.74" y1="110.49" x2="139.4" y2="111.41"/><path class="cls-2" d="M124,103.35c2.38,7-1.27,8-1.44,8v.08h18.19v-.17c-.68,0-4.68-1.19-7.48-9.42L114,45.15H100.76v.17l.29.35a44.89,44.89,0,0,1,8.45,14.84Z"/><path class="cls-2" d="M100.22,46.74a5.38,5.38,0,0,1,1.49,5.19c-1.75,9.85-14.42,24.3-2.57,29.14,0,0-7.41-.84-10,11.26s-1.8,21.35-13.76,21.77c0,0,13.47,1.06,16.22-7.91,2.63-8.56.57-26.16,18.52-25.12,0,0-13.56-.53-12.12-8.94C99.66,62.69,106,50.54,100.22,46.74Z"/><line class="cls-2" x1="293.59" y1="111.41" x2="292.79" y2="111.14"/><path class="cls-2" d="M333.86,59.75h-.1c0-1.2-.84-12.85-9.13-12.85H309.94V76.42h13.39c6.43,0,7-6.38,7-7h.1v16h-.1c0-.6-.55-7.15-7-7.15H309.94v31.23h15.25c9.13,0,10-12.34,10-13.61h.19v15.48H294.53v-.08c.38,0,4.29-.69,4.29-7.92V53c0-7.23-3.91-7.91-4.29-7.91V45h39.33Z"/></svg>